<?xml version="1.0" encoding="UTF-8"?>
<!DOCTYPE svg PUBLIC "-//W3C//DTD SVG 1.1//EN" "http://www.w3.org/Graphics/SVG/1.1/DTD/svg11.dtd">
<svg xmlns="http://www.w3.org/2000/svg" version="1.1" width="512px" height="512px" style="shape-rendering:geometricPrecision; text-rendering:geometricPrecision; image-rendering:optimizeQuality; fill-rule:evenodd; clip-rule:evenodd" xmlns:xlink="http://www.w3.org/1999/xlink">
<g><path style="opacity:0.712" fill="#1e151d" d="M 255.5,87.5 C 255.5,88.1667 255.5,88.8333 255.5,89.5C 240.324,89.0673 225.991,92.0673 212.5,98.5C 188.206,108.628 171.039,125.961 161,150.5C 159.333,151.5 158,152.833 157,154.5C 146.222,181.016 141.556,208.682 143,237.5C 138.195,245.462 135.362,254.128 134.5,263.5C 133.041,263.567 131.708,263.234 130.5,262.5C 130.5,261.833 130.5,261.167 130.5,260.5C 134.968,251.131 137.968,241.298 139.5,231C 139.342,228.551 138.675,226.384 137.5,224.5C 138.492,224.672 139.158,224.338 139.5,223.5C 140.117,223.389 140.617,223.056 141,222.5C 141.611,217.504 142.111,212.504 142.5,207.5C 142.5,206.833 142.5,206.167 142.5,205.5C 143.182,199.455 143.182,193.455 142.5,187.5C 148.975,158.181 162.975,133.014 184.5,112C 205.004,94.7762 228.67,86.6095 255.5,87.5 Z"/></g>
<g><path style="opacity:1" fill="#2b2a2b" d="M 253.5,242.5 C 223.841,228.373 195.841,231.206 169.5,251C 162.611,257.061 155.944,263.228 149.5,269.5C 145.111,267.397 140.445,265.897 135.5,265C 134.944,264.617 134.611,264.117 134.5,263.5C 135.362,254.128 138.195,245.462 143,237.5C 141.556,208.682 146.222,181.016 157,154.5C 158,152.833 159.333,151.5 161,150.5C 171.039,125.961 188.206,108.628 212.5,98.5C 219.053,97.3577 225.386,95.5244 231.5,93C 239.039,92.0625 246.539,91.2291 254,90.5C 254.832,141.335 254.665,192.002 253.5,242.5 Z"/></g>
<g><path style="opacity:1" fill="#1f1f1f" d="M 255.5,89.5 C 272.485,90.6603 288.485,95.1603 303.5,103C 340.423,129.988 360.923,166.488 365,212.5C 365.333,221.167 365.667,229.833 366,238.5C 375.238,265.965 384.738,293.298 394.5,320.5C 392.833,320.5 391.167,320.5 389.5,320.5C 373.122,289.615 350.789,263.781 322.5,243C 299.663,228.867 276.996,229.034 254.5,243.5C 253.893,243.376 253.56,243.043 253.5,242.5C 254.665,192.002 254.832,141.335 254,90.5C 246.539,91.2291 239.039,92.0625 231.5,93C 225.386,95.5244 219.053,97.3577 212.5,98.5C 225.991,92.0673 240.324,89.0673 255.5,89.5 Z"/></g>
<g><path style="opacity:1" fill="#191717" d="M 255.5,87.5 C 289.705,88.9346 317.372,102.935 338.5,129.5C 361.687,161.396 372.354,197.063 370.5,236.5C 371.532,243.663 373.199,250.663 375.5,257.5C 376.11,258.391 376.443,259.391 376.5,260.5C 378.833,266.5 381.167,272.5 383.5,278.5C 383.667,282.673 385,286.34 387.5,289.5C 387.336,292.187 387.503,294.854 388,297.5C 391.726,303.934 394.56,310.601 396.5,317.5C 396.5,317.833 396.5,318.167 396.5,318.5C 396.5,319.833 395.833,320.5 394.5,320.5C 384.738,293.298 375.238,265.965 366,238.5C 365.667,229.833 365.333,221.167 365,212.5C 360.923,166.488 340.423,129.988 303.5,103C 288.485,95.1603 272.485,90.6603 255.5,89.5C 255.5,88.8333 255.5,88.1667 255.5,87.5 Z"/></g>
<g><path style="opacity:0.004" fill="#4f000a" d="M 352.5,147.5 C 353.525,147.897 353.692,148.563 353,149.5C 352.536,148.906 352.369,148.239 352.5,147.5 Z"/></g>
<g><path style="opacity:0.745" fill="#dd1b3e" d="M 142.5,187.5 C 143.182,193.455 143.182,199.455 142.5,205.5C 121.572,203.213 100.572,201.879 79.5,201.5C 64.5478,201.048 49.8812,202.881 35.5,207C 32.08,208.746 28.9133,210.913 26,213.5C 22.5473,218.69 22.8806,223.69 27,228.5C 35.0205,237.194 44.1872,244.36 54.5,250C 84.0243,265.398 114.691,278.065 146.5,288C 173.766,296.412 201.099,304.245 228.5,311.5C 226.146,311.838 223.813,312.338 221.5,313C 222.696,313.654 222.696,314.154 221.5,314.5C 203.81,310.078 185.81,305.578 167.5,301C 157.075,298.025 146.909,294.525 137,290.5C 136.667,291.167 136.333,291.833 136,292.5C 135.751,291.376 135.251,290.376 134.5,289.5C 132.765,290.057 131.098,290.39 129.5,290.5C 125.151,284.836 122.151,285.503 120.5,292.5C 119.662,292.842 119.328,293.508 119.5,294.5C 118.833,294.5 118.5,294.833 118.5,295.5C 118.5,296.167 118.167,296.5 117.5,296.5C 82.7778,285.518 50.4445,270.018 20.5,250C 16.3333,245.5 12.1667,241 8,236.5C 7.12385,232.3 6.29052,228.133 5.5,224C 5.44889,219.368 5.61556,214.535 6,209.5C 9.08036,202.44 14.0804,197.107 21,193.5C 21.3333,193.833 21.6667,194.167 22,194.5C 23.4352,192.789 25.2686,191.622 27.5,191C 36.1095,187.839 44.7762,186.006 53.5,185.5C 68.4453,183.521 83.112,182.854 97.5,183.5C 112.595,185.143 127.595,186.476 142.5,187.5 Z"/></g>
<g><path style="opacity:0.798" fill="#dd1d3f" d="M 142.5,207.5 C 142.111,212.504 141.611,217.504 141,222.5C 140.617,223.056 140.117,223.389 139.5,223.5C 138.508,223.328 137.842,223.662 137.5,224.5C 133.332,223.667 129.498,223.667 126,224.5C 125.333,221.833 124.667,221.833 124,224.5C 120.974,223.745 117.974,222.745 115,221.5C 114.085,222.328 113.419,223.328 113,224.5C 111.934,222.901 110.434,221.901 108.5,221.5C 103.636,222.087 99.1356,222.421 95,222.5C 91.4499,221.408 87.7832,220.741 84,220.5C 80.6944,221.756 77.6944,221.756 75,220.5C 73.3333,221.167 71.6667,221.833 70,222.5C 67.5425,221.597 64.8758,221.264 62,221.5C 59.2259,222.536 56.3926,223.369 53.5,224C 59.4243,228.213 65.5909,232.046 72,235.5C 77.0126,236.927 81.846,239.427 86.5,243C 100.508,249.391 115.175,255.224 130.5,260.5C 130.5,261.167 130.5,261.833 130.5,262.5C 128.32,267.291 129.653,270.625 134.5,272.5C 132.847,273.605 131.18,273.771 129.5,273C 128.663,274.011 128.33,275.178 128.5,276.5C 126.5,276.5 124.5,276.5 122.5,276.5C 97.1745,267.892 72.8411,257.058 49.5,244C 40.6599,238.824 33.4932,231.991 28,223.5C 27.4523,217.437 29.9523,212.937 35.5,210C 43.6234,207.309 51.9567,205.642 60.5,205C 87.8946,204.023 115.228,204.856 142.5,207.5 Z"/></g>
<g><path style="opacity:1" fill="#0c0d0d" d="M 389.5,320.5 C 368.84,318.089 348.174,315.755 327.5,313.5C 305.09,308.419 282.423,304.086 259.5,300.5C 259.5,300.167 259.5,299.833 259.5,299.5C 259.5,295.167 259.5,290.833 259.5,286.5C 257.833,286.5 256.167,286.5 254.5,286.5C 252.833,286.5 251.167,286.5 249.5,286.5C 249.5,290.167 249.5,293.833 249.5,297.5C 233.542,293.475 217.542,289.642 201.5,286C 184.052,280.39 166.719,274.89 149.5,269.5C 155.944,263.228 162.611,257.061 169.5,251C 195.841,231.206 223.841,228.373 253.5,242.5C 253.56,243.043 253.893,243.376 254.5,243.5C 276.996,229.034 299.663,228.867 322.5,243C 350.789,263.781 373.122,289.615 389.5,320.5 Z"/></g>
<g><path style="opacity:0.692" fill="#dd1c3f" d="M 370.5,236.5 C 372.17,236.751 373.67,237.418 375,238.5C 376.147,237.542 377.147,237.875 378,239.5C 378.333,239.167 378.667,238.833 379,238.5C 385.742,242.526 393.075,245.193 401,246.5C 406.616,249.462 412.282,251.462 418,252.5C 432.467,258.353 446.967,264.853 461.5,272C 476.424,279.387 489.924,288.887 502,300.5C 504.467,304.6 507.301,308.434 510.5,312C 510.54,318.024 510.374,324.19 510,330.5C 503.377,343.296 492.543,351.13 477.5,354C 472.286,355.637 466.953,356.637 461.5,357C 445.042,358.302 428.709,358.802 412.5,358.5C 411.272,357.694 410.272,356.694 409.5,355.5C 409.443,354.391 409.11,353.391 408.5,352.5C 408.267,350.938 407.6,349.605 406.5,348.5C 405.828,345.658 404.494,343.158 402.5,341C 403.094,340.536 403.761,340.369 404.5,340.5C 419.881,340.802 435.215,340.469 450.5,339.5C 462.415,339.355 473.749,336.855 484.5,332C 490.783,327.13 491.949,321.297 488,314.5C 479.979,305.806 470.813,298.64 460.5,293C 432.972,279.106 404.639,267.272 375.5,257.5C 373.199,250.663 371.532,243.663 370.5,236.5 Z"/></g>
<g><path style="opacity:0.753" fill="#dd1c3f" d="M 376.5,260.5 C 401.352,269.062 425.686,278.895 449.5,290C 458.501,294.832 467.168,300.165 475.5,306C 479.702,309.867 483.535,314.033 487,318.5C 488.163,323.345 486.663,327.179 482.5,330C 472.602,334.151 462.269,336.484 451.5,337C 438.504,337.5 425.504,337.667 412.5,337.5C 405.804,337.609 399.137,337.276 392.5,336.5C 392.5,335.833 392.167,335.5 391.5,335.5C 389.842,334.819 388.175,333.985 386.5,333C 389.045,330.935 391.379,331.102 393.5,333.5C 394.5,333 395.5,332.5 396.5,332C 395.177,331.184 394.511,330.017 394.5,328.5C 396.167,328.5 397.833,328.5 399.5,328.5C 399.784,326.585 399.451,324.919 398.5,323.5C 398.5,322.167 398.5,320.833 398.5,319.5C 403.844,319.334 409.177,319.501 414.5,320C 415.025,320.692 415.692,321.192 416.5,321.5C 416.833,320.833 417.167,320.167 417.5,319.5C 421.034,320.131 424.534,320.798 428,321.5C 430.271,319.566 432.271,319.566 434,321.5C 435.667,320.833 437.333,320.167 439,319.5C 446.856,319.595 454.189,319.595 461,319.5C 461.464,318.906 461.631,318.239 461.5,317.5C 460.101,316.11 458.434,315.11 456.5,314.5C 453.022,313.227 449.855,311.227 447,308.5C 446.667,308.833 446.333,309.167 446,309.5C 444.43,308.386 443.097,307.053 442,305.5C 441.667,305.833 441.333,306.167 441,306.5C 440.641,303.456 439.974,303.122 439,305.5C 431.241,301.359 423.241,297.359 415,293.5C 414.667,293.833 414.333,294.167 414,294.5C 405.072,289.425 395.905,285.758 386.5,283.5C 386.5,282.833 386.167,282.5 385.5,282.5C 385.34,280.847 384.674,279.514 383.5,278.5C 381.167,272.5 378.833,266.5 376.5,260.5 Z"/></g>
<g><path style="opacity:1" fill="#8c152b" d="M 141.5,270.5 C 149.449,271.154 156.782,273.487 163.5,277.5C 155.841,275.911 148.508,273.578 141.5,270.5 Z"/></g>
<g><path style="opacity:0.235" fill="#3f080e" d="M 383.5,278.5 C 384.674,279.514 385.34,280.847 385.5,282.5C 386.167,282.5 386.5,282.833 386.5,283.5C 386.833,285.5 387.167,287.5 387.5,289.5C 385,286.34 383.667,282.673 383.5,278.5 Z"/></g>
<g><path style="opacity:1" fill="#f9e1e5" d="M 142.5,205.5 C 142.5,206.167 142.5,206.833 142.5,207.5C 115.228,204.856 87.8946,204.023 60.5,205C 51.9567,205.642 43.6234,207.309 35.5,210C 29.9523,212.937 27.4523,217.437 28,223.5C 33.4932,231.991 40.6599,238.824 49.5,244C 72.8411,257.058 97.1745,267.892 122.5,276.5C 192.05,300.75 263.383,318.417 336.5,329.5C 337.718,330.161 339.051,330.828 340.5,331.5C 340.376,332.107 340.043,332.44 339.5,332.5C 329.17,331.143 318.836,329.643 308.5,328C 281.793,322.559 255.126,317.059 228.5,311.5C 201.099,304.245 173.766,296.412 146.5,288C 114.691,278.065 84.0243,265.398 54.5,250C 44.1872,244.36 35.0205,237.194 27,228.5C 22.8806,223.69 22.5473,218.69 26,213.5C 28.9133,210.913 32.08,208.746 35.5,207C 49.8812,202.881 64.5478,201.048 79.5,201.5C 100.572,201.879 121.572,203.213 142.5,205.5 Z"/></g>
<g><path style="opacity:1" fill="#611321" d="M 130.5,262.5 C 131.708,263.234 133.041,263.567 134.5,263.5C 134.611,264.117 134.944,264.617 135.5,265C 140.445,265.897 145.111,267.397 149.5,269.5C 166.719,274.89 184.052,280.39 201.5,286C 217.542,289.642 233.542,293.475 249.5,297.5C 249.5,297.833 249.5,298.167 249.5,298.5C 249.5,299.5 249.5,300.5 249.5,301.5C 237.108,297.485 224.441,294.319 211.5,292C 195.459,287.227 179.459,282.394 163.5,277.5C 156.782,273.487 149.449,271.154 141.5,270.5C 138.28,269.009 134.946,267.509 131.5,266C 130.663,264.989 130.33,263.822 130.5,262.5 Z"/></g>
<g><path style="opacity:1" fill="#757172" d="M 254.5,286.5 C 254.5,290.5 254.5,294.5 254.5,298.5C 252.833,298.5 251.167,298.5 249.5,298.5C 249.5,298.167 249.5,297.833 249.5,297.5C 249.5,293.833 249.5,290.167 249.5,286.5C 251.167,286.5 252.833,286.5 254.5,286.5 Z"/></g>
<g><path style="opacity:1" fill="#494748" d="M 254.5,286.5 C 256.167,286.5 257.833,286.5 259.5,286.5C 259.5,290.833 259.5,295.167 259.5,299.5C 257.585,299.784 255.919,299.451 254.5,298.5C 254.5,294.5 254.5,290.5 254.5,286.5 Z"/></g>
<g><path style="opacity:1" fill="#7b1a2c" d="M 120.5,292.5 C 125.173,293.503 129.839,294.503 134.5,295.5C 135.833,296.5 137.167,297.5 138.5,298.5C 132.23,296.74 125.897,295.407 119.5,294.5C 119.328,293.508 119.662,292.842 120.5,292.5 Z"/></g>
<g><path style="opacity:1" fill="#300b0d" d="M 387.5,289.5 C 391.347,298.552 394.68,307.885 397.5,317.5C 397.167,317.5 396.833,317.5 396.5,317.5C 394.56,310.601 391.726,303.934 388,297.5C 387.503,294.854 387.336,292.187 387.5,289.5 Z"/></g>
<g><path style="opacity:1" fill="#282427" d="M 118.5,295.5 C 122.162,295.723 125.495,296.723 128.5,298.5C 121.329,309.504 114.662,320.838 108.5,332.5C 111.99,323.195 114.99,313.695 117.5,304C 117.347,302.791 117.014,301.625 116.5,300.5C 117.234,299.292 117.567,297.959 117.5,296.5C 118.167,296.5 118.5,296.167 118.5,295.5 Z"/></g>
<g><path style="opacity:0.999" fill="#f9dee3" d="M 375.5,257.5 C 404.639,267.272 432.972,279.106 460.5,293C 470.813,298.64 479.979,305.806 488,314.5C 491.949,321.297 490.783,327.13 484.5,332C 473.749,336.855 462.415,339.355 450.5,339.5C 437.833,338.833 425.167,338.167 412.5,337.5C 425.504,337.667 438.504,337.5 451.5,337C 462.269,336.484 472.602,334.151 482.5,330C 486.663,327.179 488.163,323.345 487,318.5C 483.535,314.033 479.702,309.867 475.5,306C 467.168,300.165 458.501,294.832 449.5,290C 425.686,278.895 401.352,269.062 376.5,260.5C 376.443,259.391 376.11,258.391 375.5,257.5 Z"/></g>
<g><path style="opacity:1" fill="#0c0d0d" d="M 128.5,298.5 C 161.63,309.534 195.297,318.867 229.5,326.5C 229.5,339.833 229.5,353.167 229.5,366.5C 233.167,366.5 236.833,366.5 240.5,366.5C 240.5,354.167 240.5,341.833 240.5,329.5C 243.539,330.01 246.539,330.677 249.5,331.5C 249.5,343.167 249.5,354.833 249.5,366.5C 251.167,366.5 252.833,366.5 254.5,366.5C 256.167,366.5 257.833,366.5 259.5,366.5C 259.5,355.5 259.5,344.5 259.5,333.5C 262.877,333.959 266.211,334.626 269.5,335.5C 269.5,345.5 269.5,355.5 269.5,365.5C 272.5,365.5 275.5,365.5 278.5,365.5C 278.5,356.167 278.5,346.833 278.5,337.5C 281.99,338.257 285.323,339.257 288.5,340.5C 288.5,349.167 288.5,357.833 288.5,366.5C 291.833,366.5 295.167,366.5 298.5,366.5C 298.5,358.167 298.5,349.833 298.5,341.5C 312.812,343.941 327.145,346.274 341.5,348.5C 349.598,350.77 357.931,352.604 366.5,354C 379.58,354.575 392.58,355.242 405.5,356C 404.833,356.333 404.167,356.667 403.5,357C 406.792,357.756 407.792,359.589 406.5,362.5C 356.281,383.443 305.947,404.11 255.5,424.5C 203.914,403.537 152.247,382.871 100.5,362.5C 102.285,355.809 104.285,349.142 106.5,342.5C 106.457,341.584 106.124,340.917 105.5,340.5C 107.043,338.072 108.043,335.406 108.5,332.5C 114.662,320.838 121.329,309.504 128.5,298.5 Z"/></g>
<g><path style="opacity:1" fill="#8e3b4b" d="M 249.5,298.5 C 251.167,298.5 252.833,298.5 254.5,298.5C 255.919,299.451 257.585,299.784 259.5,299.5C 259.5,299.833 259.5,300.167 259.5,300.5C 259.5,301.167 259.5,301.833 259.5,302.5C 256.167,302.167 252.833,301.833 249.5,301.5C 249.5,300.5 249.5,299.5 249.5,298.5 Z"/></g>
<g><path style="opacity:1" fill="#a3152f" d="M 134.5,295.5 C 150.259,298.771 165.593,303.271 180.5,309C 195.328,312.344 209.995,316.011 224.5,320C 226.727,320.941 228.727,322.108 230.5,323.5C 230.5,323.833 230.5,324.167 230.5,324.5C 214.84,319.265 198.84,315.098 182.5,312C 167.941,307.187 153.274,302.687 138.5,298.5C 137.167,297.5 135.833,296.5 134.5,295.5 Z"/></g>
<g><path style="opacity:1" fill="#5c111f" d="M 259.5,300.5 C 282.423,304.086 305.09,308.419 327.5,313.5C 316.426,313.226 305.426,312.226 294.5,310.5C 282.461,309.033 270.794,306.366 259.5,302.5C 259.5,301.833 259.5,301.167 259.5,300.5 Z"/></g>
<g><path style="opacity:1" fill="#d92140" d="M 134.5,272.5 C 160.327,280.512 186.327,288.345 212.5,296C 223.716,297.625 234.716,300.291 245.5,304C 294.522,315.574 344.188,323.741 394.5,328.5C 394.511,330.017 395.177,331.184 396.5,332C 395.5,332.5 394.5,333 393.5,333.5C 391.379,331.102 389.045,330.935 386.5,333C 388.175,333.985 389.842,334.819 391.5,335.5C 376.402,335.103 361.402,333.77 346.5,331.5C 343.456,329.989 340.122,329.322 336.5,329.5C 263.383,318.417 192.05,300.75 122.5,276.5C 124.5,276.5 126.5,276.5 128.5,276.5C 128.33,275.178 128.663,274.011 129.5,273C 131.18,273.771 132.847,273.605 134.5,272.5 Z"/></g>
<g><path style="opacity:0.008" fill="#7e192a" d="M 456.5,314.5 C 458.434,315.11 460.101,316.11 461.5,317.5C 459.067,317.727 457.401,316.727 456.5,314.5 Z"/></g>
<g><path style="opacity:1" fill="#50121d" d="M 327.5,313.5 C 348.174,315.755 368.84,318.089 389.5,320.5C 391.167,320.5 392.833,320.5 394.5,320.5C 395.833,320.5 396.5,319.833 396.5,318.5C 397.404,319.209 397.737,320.209 397.5,321.5C 381.413,321.965 365.413,321.132 349.5,319C 341.915,317.628 334.581,315.794 327.5,313.5 Z"/></g>
<g><path style="opacity:1" fill="#7b1326" d="M 294.5,310.5 C 305.426,312.226 316.426,313.226 327.5,313.5C 334.581,315.794 341.915,317.628 349.5,319C 365.413,321.132 381.413,321.965 397.5,321.5C 397.737,320.209 397.404,319.209 396.5,318.5C 396.5,318.167 396.5,317.833 396.5,317.5C 396.833,317.5 397.167,317.5 397.5,317.5C 398.338,317.842 398.672,318.508 398.5,319.5C 398.5,320.833 398.5,322.167 398.5,323.5C 397.207,324.158 395.707,324.492 394,324.5C 360.266,322.847 327.1,318.181 294.5,310.5 Z"/></g>
<g><path style="opacity:1" fill="#54111d" d="M 118.5,295.5 C 118.5,294.833 118.833,294.5 119.5,294.5C 125.897,295.407 132.23,296.74 138.5,298.5C 153.274,302.687 167.941,307.187 182.5,312C 198.84,315.098 214.84,319.265 230.5,324.5C 230.5,325.167 230.5,325.833 230.5,326.5C 230.167,326.5 229.833,326.5 229.5,326.5C 195.297,318.867 161.63,309.534 128.5,298.5C 125.495,296.723 122.162,295.723 118.5,295.5 Z"/></g>
<g><path style="opacity:1" fill="#d61c3d" d="M 228.5,311.5 C 255.126,317.059 281.793,322.559 308.5,328C 318.836,329.643 329.17,331.143 339.5,332.5C 340.568,333.434 341.901,333.768 343.5,333.5C 359.086,335.827 374.753,337.494 390.5,338.5C 395.37,338.69 400.036,339.356 404.5,340.5C 403.761,340.369 403.094,340.536 402.5,341C 404.494,343.158 405.828,345.658 406.5,348.5C 384.803,347.439 363.136,345.939 341.5,344C 332.352,341.317 323.019,339.484 313.5,338.5C 311.833,338.5 310.167,338.5 308.5,338.5C 296.647,335.572 284.647,332.739 272.5,330C 262.181,328.864 252.014,327.03 242,324.5C 240.93,324.528 240.097,324.861 239.5,325.5C 236.754,323.874 233.754,323.207 230.5,323.5C 228.727,322.108 226.727,320.941 224.5,320C 209.995,316.011 195.328,312.344 180.5,309C 165.593,303.271 150.259,298.771 134.5,295.5C 129.839,294.503 125.173,293.503 120.5,292.5C 122.151,285.503 125.151,284.836 129.5,290.5C 131.098,290.39 132.765,290.057 134.5,289.5C 135.251,290.376 135.751,291.376 136,292.5C 136.333,291.833 136.667,291.167 137,290.5C 146.909,294.525 157.075,298.025 167.5,301C 185.81,305.578 203.81,310.078 221.5,314.5C 222.696,314.154 222.696,313.654 221.5,313C 223.813,312.338 226.146,311.838 228.5,311.5 Z"/></g>
<g><path style="opacity:1" fill="#9f5562" d="M 230.5,323.5 C 233.754,323.207 236.754,323.874 239.5,325.5C 239.5,326.5 239.5,327.5 239.5,328.5C 236.455,328.492 233.455,328.159 230.5,327.5C 230.5,327.167 230.5,326.833 230.5,326.5C 230.5,325.833 230.5,325.167 230.5,324.5C 230.5,324.167 230.5,323.833 230.5,323.5 Z"/></g>
<g><path style="opacity:1" fill="#b71734" d="M 130.5,262.5 C 130.33,263.822 130.663,264.989 131.5,266C 134.946,267.509 138.28,269.009 141.5,270.5C 148.508,273.578 155.841,275.911 163.5,277.5C 179.459,282.394 195.459,287.227 211.5,292C 224.441,294.319 237.108,297.485 249.5,301.5C 252.833,301.833 256.167,302.167 259.5,302.5C 270.794,306.366 282.461,309.033 294.5,310.5C 327.1,318.181 360.266,322.847 394,324.5C 395.707,324.492 397.207,324.158 398.5,323.5C 399.451,324.919 399.784,326.585 399.5,328.5C 397.833,328.5 396.167,328.5 394.5,328.5C 344.188,323.741 294.522,315.574 245.5,304C 234.716,300.291 223.716,297.625 212.5,296C 186.327,288.345 160.327,280.512 134.5,272.5C 129.653,270.625 128.32,267.291 130.5,262.5 Z"/></g>
<g><path style="opacity:1" fill="#52121e" d="M 239.5,325.5 C 242.679,326.793 246.012,327.46 249.5,327.5C 249.5,328.833 249.5,330.167 249.5,331.5C 246.539,330.677 243.539,330.01 240.5,329.5C 240.167,329.5 239.833,329.5 239.5,329.5C 239.5,329.167 239.5,328.833 239.5,328.5C 239.5,327.5 239.5,326.5 239.5,325.5 Z"/></g>
<g><path style="opacity:1" fill="#333333" d="M 229.5,326.5 C 229.833,326.5 230.167,326.5 230.5,326.5C 230.5,326.833 230.5,327.167 230.5,327.5C 230.5,340.167 230.5,352.833 230.5,365.5C 233.5,365.5 236.5,365.5 239.5,365.5C 239.5,353.5 239.5,341.5 239.5,329.5C 239.833,329.5 240.167,329.5 240.5,329.5C 240.5,341.833 240.5,354.167 240.5,366.5C 236.833,366.5 233.167,366.5 229.5,366.5C 229.5,353.167 229.5,339.833 229.5,326.5 Z"/></g>
<g><path style="opacity:1" fill="#7a7878" d="M 230.5,327.5 C 233.455,328.159 236.455,328.492 239.5,328.5C 239.5,328.833 239.5,329.167 239.5,329.5C 239.5,341.5 239.5,353.5 239.5,365.5C 236.5,365.5 233.5,365.5 230.5,365.5C 230.5,352.833 230.5,340.167 230.5,327.5 Z"/></g>
<g><path style="opacity:0.97" fill="#251218" d="M 116.5,300.5 C 117.014,301.625 117.347,302.791 117.5,304C 114.99,313.695 111.99,323.195 108.5,332.5C 108.043,335.406 107.043,338.072 105.5,340.5C 104.363,341.789 103.03,342.789 101.5,343.5C 106.659,329.181 111.659,314.848 116.5,300.5 Z"/></g>
<g><path style="opacity:1" fill="#874451" d="M 249.5,327.5 C 252.657,329 255.991,330 259.5,330.5C 259.5,331.167 259.5,331.833 259.5,332.5C 257.833,332.5 256.167,332.5 254.5,332.5C 252.883,331.962 251.216,331.629 249.5,331.5C 249.5,330.167 249.5,328.833 249.5,327.5 Z"/></g>
<g><path style="opacity:1" fill="#59121f" d="M 259.5,330.5 C 262.939,330.788 266.272,331.454 269.5,332.5C 269.5,333.5 269.5,334.5 269.5,335.5C 266.211,334.626 262.877,333.959 259.5,333.5C 259.5,333.167 259.5,332.833 259.5,332.5C 259.5,331.833 259.5,331.167 259.5,330.5 Z"/></g>
<g><path style="opacity:1" fill="#f2b3bd" d="M 336.5,329.5 C 340.122,329.322 343.456,329.989 346.5,331.5C 344.801,331.34 343.134,331.506 341.5,332C 342.416,332.278 343.082,332.778 343.5,333.5C 341.901,333.768 340.568,333.434 339.5,332.5C 340.043,332.44 340.376,332.107 340.5,331.5C 339.051,330.828 337.718,330.161 336.5,329.5 Z"/></g>
<g><path style="opacity:1" fill="#747272" d="M 249.5,331.5 C 251.216,331.629 252.883,331.962 254.5,332.5C 254.5,343.833 254.5,355.167 254.5,366.5C 252.833,366.5 251.167,366.5 249.5,366.5C 249.5,354.833 249.5,343.167 249.5,331.5 Z"/></g>
<g><path style="opacity:1" fill="#494849" d="M 254.5,332.5 C 256.167,332.5 257.833,332.5 259.5,332.5C 259.5,332.833 259.5,333.167 259.5,333.5C 259.5,344.5 259.5,355.5 259.5,366.5C 257.833,366.5 256.167,366.5 254.5,366.5C 254.5,355.167 254.5,343.833 254.5,332.5 Z"/></g>
<g><path style="opacity:1" fill="#aa1b35" d="M 239.5,325.5 C 240.097,324.861 240.93,324.528 242,324.5C 252.014,327.03 262.181,328.864 272.5,330C 284.647,332.739 296.647,335.572 308.5,338.5C 298.477,337.295 288.477,335.962 278.5,334.5C 275.583,333.583 272.583,332.916 269.5,332.5C 266.272,331.454 262.939,330.788 259.5,330.5C 255.991,330 252.657,329 249.5,327.5C 246.012,327.46 242.679,326.793 239.5,325.5 Z"/></g>
<g><path style="opacity:1" fill="#7b3845" d="M 269.5,332.5 C 272.583,332.916 275.583,333.583 278.5,334.5C 278.5,334.833 278.5,335.167 278.5,335.5C 278.5,336.167 278.5,336.833 278.5,337.5C 275.539,336.677 272.539,336.01 269.5,335.5C 269.5,334.5 269.5,333.5 269.5,332.5 Z"/></g>
<g><path style="opacity:1" fill="#f7d5da" d="M 346.5,331.5 C 361.402,333.77 376.402,335.103 391.5,335.5C 392.167,335.5 392.5,335.833 392.5,336.5C 389.15,336.335 385.817,336.502 382.5,337C 385.365,337.183 388.031,337.683 390.5,338.5C 374.753,337.494 359.086,335.827 343.5,333.5C 343.082,332.778 342.416,332.278 341.5,332C 343.134,331.506 344.801,331.34 346.5,331.5 Z"/></g>
<g><path style="opacity:1" fill="#494849" d="M 269.5,335.5 C 272.539,336.01 275.539,336.677 278.5,337.5C 278.5,346.833 278.5,356.167 278.5,365.5C 275.5,365.5 272.5,365.5 269.5,365.5C 269.5,355.5 269.5,345.5 269.5,335.5 Z"/></g>
<g><path style="opacity:1" fill="#831328" d="M 278.5,335.5 C 278.5,335.167 278.5,334.833 278.5,334.5C 288.477,335.962 298.477,337.295 308.5,338.5C 310.167,338.5 311.833,338.5 313.5,338.5C 314.167,339.167 314.833,339.833 315.5,340.5C 309.129,340.512 302.796,340.012 296.5,339C 290.654,336.997 284.654,335.831 278.5,335.5 Z"/></g>
<g><path style="opacity:1" fill="#fcedef" d="M 392.5,336.5 C 399.137,337.276 405.804,337.609 412.5,337.5C 425.167,338.167 437.833,338.833 450.5,339.5C 435.215,340.469 419.881,340.802 404.5,340.5C 400.036,339.356 395.37,338.69 390.5,338.5C 388.031,337.683 385.365,337.183 382.5,337C 385.817,336.502 389.15,336.335 392.5,336.5 Z"/></g>
<g><path style="opacity:1" fill="#797978" d="M 212.5,340.5 C 215.5,340.5 218.5,340.5 221.5,340.5C 221.5,348.833 221.5,357.167 221.5,365.5C 218.5,365.5 215.5,365.5 212.5,365.5C 212.5,357.167 212.5,348.833 212.5,340.5 Z"/></g>
<g><path style="opacity:1" fill="#525151" d="M 212.5,340.5 C 215.625,339.521 218.958,339.187 222.5,339.5C 222.5,348.5 222.5,357.5 222.5,366.5C 218.958,366.813 215.625,366.479 212.5,365.5C 215.5,365.5 218.5,365.5 221.5,365.5C 221.5,357.167 221.5,348.833 221.5,340.5C 218.5,340.5 215.5,340.5 212.5,340.5 Z"/></g>
<g><path style="opacity:1" fill="#100909" d="M 105.5,340.5 C 106.124,340.917 106.457,341.584 106.5,342.5C 104.285,349.142 102.285,355.809 100.5,362.5C 152.247,382.871 203.914,403.537 255.5,424.5C 305.947,404.11 356.281,383.443 406.5,362.5C 407.792,359.589 406.792,357.756 403.5,357C 404.167,356.667 404.833,356.333 405.5,356C 392.58,355.242 379.58,354.575 366.5,354C 357.931,352.604 349.598,350.77 341.5,348.5C 364.141,351.594 386.807,353.927 409.5,355.5C 409.462,358.181 410.129,360.681 411.5,363C 411.257,363.902 410.923,364.735 410.5,365.5C 408.801,365.34 407.134,365.506 405.5,366C 398.35,369.021 391.35,372.188 384.5,375.5C 380.584,378.257 376.25,380.257 371.5,381.5C 366.67,382.248 362.003,383.581 357.5,385.5C 356.127,385.343 354.793,385.51 353.5,386C 350.261,388.423 346.928,390.59 343.5,392.5C 341.574,394.293 339.241,395.293 336.5,395.5C 329.341,397.085 322.674,399.751 316.5,403.5C 305.567,407.304 294.901,411.637 284.5,416.5C 284.158,417.338 283.492,417.672 282.5,417.5C 279.759,417.707 277.426,418.707 275.5,420.5C 268.112,422.369 261.112,425.036 254.5,428.5C 201.542,408.192 148.875,387.026 96.5,365C 95.3977,362.599 95.231,360.099 96,357.5C 98.1383,352.912 99.9717,348.245 101.5,343.5C 103.03,342.789 104.363,341.789 105.5,340.5 Z"/></g>
<g><path style="opacity:1" fill="#464647" d="M 288.5,340.5 C 291.833,340.833 295.167,341.167 298.5,341.5C 298.5,349.833 298.5,358.167 298.5,366.5C 295.167,366.5 291.833,366.5 288.5,366.5C 288.5,357.833 288.5,349.167 288.5,340.5 Z"/></g>
<g><path style="opacity:1" fill="#56121e" d="M 278.5,335.5 C 284.654,335.831 290.654,336.997 296.5,339C 302.796,340.012 309.129,340.512 315.5,340.5C 319.96,341.976 324.626,343.142 329.5,344C 344.941,345.222 360.274,347.222 375.5,350C 386.59,350.393 397.59,351.226 408.5,352.5C 409.11,353.391 409.443,354.391 409.5,355.5C 386.807,353.927 364.141,351.594 341.5,348.5C 327.145,346.274 312.812,343.941 298.5,341.5C 295.167,341.167 291.833,340.833 288.5,340.5C 285.323,339.257 281.99,338.257 278.5,337.5C 278.5,336.833 278.5,336.167 278.5,335.5 Z"/></g>
<g><path style="opacity:1" fill="#a81530" d="M 313.5,338.5 C 323.019,339.484 332.352,341.317 341.5,344C 363.136,345.939 384.803,347.439 406.5,348.5C 407.6,349.605 408.267,350.938 408.5,352.5C 397.59,351.226 386.59,350.393 375.5,350C 360.274,347.222 344.941,345.222 329.5,344C 324.626,343.142 319.96,341.976 315.5,340.5C 314.833,339.833 314.167,339.167 313.5,338.5 Z"/></g>
<g><path style="opacity:0.692" fill="#3f050e" d="M 409.5,355.5 C 410.272,356.694 411.272,357.694 412.5,358.5C 413.01,361.388 412.344,363.721 410.5,365.5C 410.923,364.735 411.257,363.902 411.5,363C 410.129,360.681 409.462,358.181 409.5,355.5 Z"/></g>
<g><path style="opacity:0.012" fill="#47020b" d="M 410.5,365.5 C 402.435,370.192 393.768,373.525 384.5,375.5C 391.35,372.188 398.35,369.021 405.5,366C 407.134,365.506 408.801,365.34 410.5,365.5 Z"/></g>
<g><path style="opacity:1" fill="#2c0b09" d="M 357.5,385.5 C 356.833,386.167 356.167,386.833 355.5,387.5C 351.889,389.931 347.889,391.597 343.5,392.5C 346.928,390.59 350.261,388.423 353.5,386C 354.793,385.51 356.127,385.343 357.5,385.5 Z"/></g>
<g><path style="opacity:0.071" fill="#4c000b" d="M 371.5,381.5 C 366.629,384.597 361.296,386.597 355.5,387.5C 356.167,386.833 356.833,386.167 357.5,385.5C 362.003,383.581 366.67,382.248 371.5,381.5 Z"/></g>
<g><path style="opacity:0.265" fill="#4a000b" d="M 336.5,395.5 C 330.326,399.249 323.659,401.915 316.5,403.5C 322.674,399.751 329.341,397.085 336.5,395.5 Z"/></g>
<g><path style="opacity:0.718" fill="#48010b" d="M 316.5,403.5 C 307.645,407.741 298.645,411.908 289.5,416C 287.866,416.494 286.199,416.66 284.5,416.5C 294.901,411.637 305.567,407.304 316.5,403.5 Z"/></g>
<g><path style="opacity:0.471" fill="#52000c" d="M 282.5,417.5 C 280.574,419.293 278.241,420.293 275.5,420.5C 277.426,418.707 279.759,417.707 282.5,417.5 Z"/></g>
<g><path style="opacity:0.384" fill="#4a010b" d="M 275.5,420.5 C 269.712,423.558 263.712,426.392 257.5,429C 256.251,429.74 255.251,429.573 254.5,428.5C 261.112,425.036 268.112,422.369 275.5,420.5 Z"/></g>
</svg>
